<svg version="1.2" xmlns="http://www.w3.org/2000/svg" viewBox="0 0 1080 1080" width="1080" height="1080"><style>.s0{fill:#ffffff}</style><path fill-rule="evenodd" class="s0" d="m312.6 533.8c-2 0.4-3.8 1.6-6 1.8c-2.4 0.2-4.6-1-6.8-1.2c-1.4-0.8-2.2-2-3.6-2.6c-0.4-1.2-1.2-2.4-1.8-3.4c-0.6-1.6-0.4-3.8-1-5c0.4-1.4 0.8-2.6 0.6-4.4c2-4.4 6-6.4 10.4-8c2.4 0.6 5 1 7.2 1.6c2.2 2 3.6 4.6 5.4 7c0.4 4.8 1 10.2-2.4 12.2c-0.8 0.6-1.4 1.4-2 2zm-39.6 43.2c0-2-0.4-3.8-0.4-5.8c0.2-3 0.8-6.2 0-9.4c1.2-4.6-0.6-12.4 0.6-17c-0.6-4.8-0.4-10-0.2-15.2c0-4.8-1-9.2 0-13.6c0.2-1-0.2-2.4 0.8-3c2.2-1.2 4.6-0.2 7 0.2c2.2-0.4 5.4-1.2 7.2 0c0.8 1.2 1 2.8 1 4.2c0.2 2.8-0.8 6.4-0.4 9.8c0.6 0.4 0.2 1.4 0.8 1.8c0.2 3.6-2.4 8 0 10.8c-0.2 1-1.2 1.4-1 2.8c0.8 2.8-0.4 6.6 0.6 8.8c-0.4 1-0.2 2.6-0.6 3.4c0.4 2 0.2 4.6 0.2 6c0.2 2 0 4-0.6 5.8c0.8 3.4 0.6 9.4 0.4 13.2c-0.2 3 0.8 6.2 0 9.4c-0.2 1 0.6 2 0.6 2.8c0 1.4-0.2 2-0.6 2.8c-2.2 1.2-5.4 1-8.6 1c-3.2 0.2-5.4-0.6-6.8-2.2c-1.4-3.2-0.4-6.2-0.4-10c0-0.8-0.4-1.6-0.4-2.2zm78.8-97.2c-1 2.2-1.8 4.8-3.2 6.6c-2.8 2-8.6 2-12.6 1c-1-0.8-2-1.6-3.2-2.2c-2.2-2.6-4.2-8-2.4-12.6c0.4-2 2.2-2.6 2.8-4.4c1.8-0.6 3-1.6 4.6-2.2c1.8 0.4 4.4 0 6 0.6c3.8 1.4 6 4.4 7.4 8.2c0.2 0 0.2 0.4 0.2 0.6c0.4 0 0.4 0.2 0.4 0.4zm-3.2 153.6c-1.6 0.6-5.2-0.2-7 1c-2.8-0.8-6.8 0-8.4-2c-1-1.4-1-2.8-1-4.4c0-0.8 0.6-1.4 0.6-2.2c0.2-1 0-1.8 0-2.6c0.6-5.6 0.4-11.2 0.4-17.2c0-2.6 0.4-5 0.2-7.6c0-1.6-0.6-3.4-0.6-5c0-3 0.2-6 0.4-9c0.2-7.8-0.2-16.2-0.4-24.2c0-2 0.2-4.2 0-6.2c0-2.2-0.2-4.4 0.4-6.4c-0.8-1.8-0.4-4-0.4-6c0-2-0.2-4.2-0.2-6.2c0-1.8 0.2-3.6 0.2-5.4c0-6.2-1.4-12.8 0.6-17.4c2-0.2 5.2 0 8 0c2.8 0 5.6 0 7.2 1.2c1.4 3.2 0 7.8 0 11.8c0 1.6 0.2 2.8 0.6 4c-0.4 7.4-0.4 14.6-0.2 22.4c0 2.2 0.2 4.4 0.2 6.6c-0.2 6.4 0 12.4 0 18.4c0 1-0.2 1.8-0.2 2.8c0 2.2 0.6 4.4 0.6 6.6c0 1.4-0.4 2.8-0.4 4.4c0 3.8 0.6 7.8 0.6 11.6c0.2 8.8-0.6 17.6 0.4 26.2c0 0.6 0.2 0.6 0.4 1c0 1-0.2 1.8-0.4 2.4c-0.8 0.4-1 1-1.6 1.4zm19.6-70c-0.2-1.4-0.6-3.4-0.6-5c-0.2-5 0.4-8.8 0.6-13.4c0.6-1.6 0.8-3.6 1.6-5c1-1.2 1.2-3 1.6-4.6c1.2-1 2-2.2 2.4-3.8c1-1.2 2.2-2.2 3-3.6c1.6-2.4 4-4.2 5.8-6.6c2.6-1 5-2.4 6.8-4.4c2-0.8 4.2-1.4 5.6-2.8c2.2-0.4 3.8-1 5.6-1.6c7.8 0.8 12.6-1.2 20-0.4c2.2 1.2 5.6 1.2 7.4 2.6c2.8 0.6 5.2 1.8 6.4 3.8c0 0.4 0 0.8 0.4 1c-0.4 3.6-0.4 7.8 0 12c0 2 0.8 4.4-0.8 6c-3.4 0.2-3.8-2.8-6.2-3.6c-1.6-1.4-4.2-2-6-3.4c-2.6 0.2-4-1-5.6-1.6c-2.4 0.2-4 0-6-0.6l-8.6 1.8c-1.6 0.4-2 1.8-3.4 2.2c-1 0.8-2.4 1.2-3.2 2.2c-2 1.6-3.6 3.8-5.6 5.4c-0.4 1.6-1.4 2.4-2.2 3.6c-1.6 4.8-3.6 9.2-3.6 15.6c1.4 6.2 4.4 10.6 7 15.6c2.4 2.2 5.6 3.8 8.2 6c2 0.2 3.6 1 5 1.8c2.2-0.2 3.6 0.4 5 1c2.4-0.4 5-0.8 8-0.6c4.4-1 8.2-2.4 11.2-4.8c1.8-1.4 2.6-3.6 5.4-3.8c2.6 2.6 1 7.6 1.6 12c0.6 1.2 0.2 3.4 0.4 5c-0.4 2-2.2 2.4-2.8 3.8c-1.2 1-2.2 2.2-3.6 2.8c-3.2 0.8-7.2 0.8-10.4 1.6c-3.8 0.2-6 0-9.2 0.6c-2.4 0.2-4-0.4-6.6-0.2c-0.8-0.2-1.8-0.8-2.8-1c-0.6-0.2-1.4 0.2-1.8 0c-0.4 0-0.8-0.6-1-0.6l-6-1c-2.4-2.4-5.8-3.8-8.6-6c-1.4-2-2.6-4-5-5c-2-3.6-5.2-5.8-6.2-10.2c-0.2-1.4-1.2-2.4-1.6-3.6c-0.6-1.4-0.6-2.6-1.2-3.8c0-0.8-0.2-1.2-0.4-1.6zm166-8.6c-0.8 3.4 0.4 7 0.4 10.6c0 3.8-1.4 8 0 11.4c-0.8 4.6 0 10.8-0.4 15.2c-2 2.6-5.4 3.8-8.4 5.4c-2.6-0.2-3.6-0.4-6 0c-1.6-1.2-1.6-3-1.6-5.4c0-2.2 0.8-4.4-0.6-5.4c-2.2 0.4-2.8 2.6-4.4 3.8c-1.4 1.4-3.2 2.2-4.2 4c-2 0.4-3.4 1.2-4.6 2.2c-3.4 1-6.2 1.4-10.2 2c-1 0.2-2.2 0.6-3 0.6c-4.6 0.2-9.2-1-14-1c-1.8-0.6-3.6-1.2-5.6-1.6c-1.2-1-2.4-2-4.2-2.4c-1.2-1-2.2-2.2-4-2.6c-0.6-1.6-1.8-2.4-3.2-3.2c-0.8-1.6-1.6-3-3.2-4c-0.6-2.4-1.6-4.4-3.4-5.6c-0.2-3.2-1.4-5-2.6-7c-0.8-4.4-0.4-10.4-1.6-14.6c0.6-2.4 1.6-5.6 0.8-8.4c1.4-2 0.8-6 1.4-8.8c0.6-2 1.8-3.2 2-5.4c1.2-1.2 1.8-2.8 2.2-4.8c1.2-1.2 2-2.8 3.2-4.4c1.2-1.4 2.4-2.6 3.4-4c2.4-1.6 4.4-3.4 6.6-5.2c2.2-0.2 4.2-1.8 6.6-2.4l2.2-0.4c1.2-0.2 3.6-1.2 5.4-1.2c1 0 2 0.2 3.2 0.2c3.6 0.2 7.2-0.6 10.6 0l1.6 0.8l3.2 0.8c3 1 6 3.2 8.8 4.8c1.8 2.2 3 5 6 6c2.4-1.4 0.6-7.2 1.6-10c3.4-2.2 9.8-1.8 14.2-1c2.8 5.2 2.4 14.2 1.2 20.8c1 4.8 0.4 11 0 16.4zm-18.8-15.6c-0.6-0.8-1.6-1.6-2-2.8c-2.4-1.6-4.4-3.8-6.8-5.6c-1.6-0.6-3.6-1.2-4.8-2.2c-3 0-4.8-1.2-7.8-1.2c-3.2-0.2-5.4 0.6-8.2 0.8c-2.8 0.8-5 2.2-7.4 3.2c-2.2 2-3.8 4.2-6.6 5.6c-0.4 2.2-1.8 3.6-2.4 5.4c-0.8 2.2-1.4 4.2-2.2 6c0 3.2-0.8 5.4-1 8.2c0.4 1.6 0.8 3 0.6 5c0.8 1.6 1.4 3.4 2.2 5.2c-0.2 2.8 1 4.2 1.6 6.2c1.8 1.8 4.4 2.8 6 4.8c1.8 1.8 4 3 6.4 4.4c2.2-0.2 3.6 0.6 5.2 1c2.4-0.4 3 1 5.4 0.8c1.6 0 2.4-0.4 3.8-0.6c1.4 0 1.6-1.4 3.2-1.2c0.6-0.6 2-0.2 3.2-0.4q1.2-0.9 3-1.2c1-1.2 2.4-1.8 3.8-2.6c0.8-1 1.4-2.4 2.2-3.4c6.2-3.8 6.6-13.6 6.4-24c0-0.2 0-0.4-0.4-0.2c0-3.2-0.8-5.6-1.6-8.2c-0.8-1-1.2-2-1.8-3zm47 57c-2.8 0-5.8 0.8-7.6-0.4c-1.4-2.8-1-6.2-0.8-9.4c0-2.8 0.2-5.8 0.2-8.8c0-3.4 0.4-6.8 0.4-10.2c0-4.8-1.2-9.8-0.4-15c0.2-1.8 0-3.4-0.6-4.4c0.6-2 0.4-2.8 0.4-5.2c-0.2-5.6-0.8-11 0-16.4c-1-6.2-0.2-13.4-0.4-21c-0.4-10.8-0.4-21.6 0-32.6c-1.2-5.2 0.2-12-1.2-17.6c0.6-2.6-0.4-7 1.2-8.8c1.6-1.4 4.6-1 7.6-1c2.8 0.2 6 0 7.6 1.4c0.6 1 0.8 2.4 0.8 4c0.2 1.6 0 3.4-0.6 4.4q0.6 2.7 0.6 5.4c0.2 0.4-0.2 1-0.2 1.6c0 2.2 0.6 4.6 0.6 7c0 1.6-0.4 3.6-0.4 5.2c0 12.2 0 24.6 0.8 35.6c-0.2 1.2-0.8 2-0.8 3.2c0.4 3.4 0 7.4 0 11c0.2 1.8 0.4 3.6 0.4 5.4c0 3.2-1 6.6 0.4 9.4c-0.6 3.6-0.4 7.2-0.4 10.8c0.2 9.6 0.2 21-0.4 31.6c0.8 0.8 0.4 2.6 1 3.8c-0.2 3.2 0.6 7.8-0.6 10c-1.8 1.2-4.8 0.8-7.6 1zm79.6-86.2c2.4 0.8 4.8 1.2 7.4 1.6c0.2 1.2 2.4 0.6 3 1.4c1.4 0.2 2 1 3.6 0.8c1 1.2 2.2 1.4 3.8 2.2c1.4 0.8 2.6 2.2 4 3.2c1 0.8 1.4 1.6 2.6 2.6c0.6 0.4 1.4 0.6 2.2 1.2c0.8 1.6 2.2 2.8 3 4.4c1.2 1.2 2 2.8 3.2 4.2c0.6 0.8 0.4 1.6 0.6 2.4c0.4 0.8 1 1.2 1.4 2c0.6 1.4 1.2 2.6 2.2 4c0 4 1.4 6.8 1.6 10.8c0.2-0.2 0.2 0 0.2 0.2c0.2 3-0.2 5.2-0.6 7.6c-0.6 2-0.4 5-1 7l-3 7.2c-1.4 2.2-2.8 4.4-3.8 6.6c-1.4 1-2.8 2.2-3.8 3.6c-1.4 1-2.8 2.2-3.8 3.4c-2.2 1-4.2 2.2-6 3.4c-1.2 0.4-2.2 1-2.8 2c-1.2 0.4-2.4 0.6-3 1.6c-2.4 0.2-4 1.4-6 2.2c-7.6 0.2-14.6 0.8-20.8-0.8l-0.8-0.6c-0.4 0-1 0.2-1.4 0c-3-0.6-6.8-2.4-9.6-3.8c-1.4-0.6-2.8-1.2-3.8-1.8c-3.2-2-6.2-4.8-9.2-7.2c-0.8-2.4-2.6-4-3.8-6l-2.2-4.4c-0.2-0.4-0.4-0.4-0.6-1l-2.2-5.6c0.2-2.2-0.4-3.2-0.6-4.8c-0.4-3.2 0.6-5.6 0-8.2c0.6-2.8 0.8-6.4 1.6-9.2c0.4-3.2 1.6-5.4 2.4-8.2c0.6-1.8 2-2.6 2.2-4.6c1.2-1.2 2.4-2.4 3.2-3.8c1.4-1 2.8-1.8 3.4-3.6c0.8-1.4 2.6-2 3.8-3c1.2-1.2 1.8-3 3.2-3.8c2.2-0.6 4.2-1.4 6.6-1.6c3.8-1.8 8.8-2.4 13.2-3.6zm-18.2 18c-3.8 2.6-7.2 5.8-10.8 8.6c-0.8 2.2-2.2 3.8-3.4 5.6c-1 5.2-2.6 9.4-2 15.4c0.8 1.6 1.4 3.2 2 4.8c0.6 1.8 1 3.6 1.8 5c1.8 2.8 4.6 4.2 6.6 6.4c1 1.4 3 1.6 3.8 2.8c1.2 1 3 1.6 4.4 2.2c0.2 0 0.4 0 0.4 0.4c3.8 0.6 7 0.6 10.4 1.2c1.8-0.8 4.6-0.6 7.2-0.6c1-0.6 2-1 3.6-1c1.6-1.6 4-2.8 6.2-4c3.6-4.8 8-8.6 9.8-15.2c0.6-3.2 0.2-7.2 0.6-10.4c0-0.2 0-0.4-0.2-0.4c-0.2-0.2 0-0.6-0.4-0.6c-1.4-4-3.2-7.4-5-11c-1-0.6-1.8-1.4-2.2-2.6c-1.8-1-3.4-2.2-5-3.4c-1.8-0.8-3.6-2.2-5.4-3.2c-4.2-1.8-9.2-2-15.2-1.8zm162.2-2.4c0.8-2.8 2-5.4 3.4-7.6c1-2.8 2-5.4 4.2-7c5.4 0.6 13-2.2 15 2.2c0 3.8-1.4 6.4-3 8.6c-0.8 2.8-2 5-3.2 7.6c-1.2 2.2-2 4.6-3.8 6.6c0.2 1.2-0.6 1.6-0.6 2.8c-1.2 1.8-2.6 3.4-3 6c-1 0.6-1.2 2.2-2.2 3.2c0 1.4-1.4 1.8-1.4 3.4c-1.2 2.2-2.4 4.4-3.2 7c-3.6 3.4-4.4 9.6-7.6 13.4c-0.4 3.6-2.2 5.8-3.8 8.2c-0.6 3.4-4.2 10.4-4.4 11.2c-0.2 1.2-1.4 1.4-1.8 2.4c-0.4 1.2-1.2 1.8-2.2 2.2c-4.2-0.4-3.4-5.4-6-7.2c-0.4-3.6-2.4-5.6-3.8-7.8c0-2-0.8-2.8-1.4-3.8c0-2.6-0.8-4.4-1.6-6.4c0-1.2-2.8-6.6-4-8.2c-0.8-2.2-1.8-4.2-3.2-5.6c-0.4-2.2-1-4.6-1.8-6.4c-0.8-1.8-2-3.4-2.6-5.6c-1.8-0.2-1.4 1.8-2.8 2.2c0 1.6-0.8 2.2-0.6 3.8c-1.6 2.2-2.4 4.8-3.6 7.6c-1 2.4-2.2 5-3 7.4c-1.6 2.2-2.2 5.2-3.6 7.4c-1 2.4-2.4 4.6-2.8 7.8c-0.8 0.8-1.4 2.2-2.2 3.2c0 1-0.6 1.6-0.2 2.8c-2.4 2.2-2.8 6.4-5.2 8.6c-2.8 0.2-3.6-1.6-4.4-3.2c-0.8-1.6-1.8-3-2.2-5c-0.6-1.8-2.2-2.8-3.2-4.4c-0.8-1.6-1-3.6-1.8-5.4l-2.2-5c-0.6-1.4-2.6-5-2.6-6c-1.4-1.6-2.2-4-3.4-5.8c-1.4-1.4-1.6-4.4-3.2-5.6c-0.2-3.4-2.2-5-2.8-8.2c-0.8-1.8-2.2-3-2.6-5c-0.6-1-1.4-2-2.2-3c-0.4-1.8-1.4-3.2-2.4-4.6c0-1-0.8-1.4-0.6-2.6c-0.6-1.4-2-2.2-3-3.4c-1.2-4.8-4.4-7.8-4.4-14c0.8-0.6 0.4-2.2 1.4-2.8c1-0.6 2.2 0.8 3.8 0.4c2.6-0.4 5-0.8 8.2-0.6c-0.2 0.2 0 0.2 0.2 0.2c1.6 0.4 1.8 2.4 3.2 3c0.4 2.8 2 4.6 2.6 7.4c1 2 2.2 3.8 3.6 5.2c0.8 1.6 1.2 3.6 2.6 4.6c0.4 2.6 1.6 4.2 2.2 6.4c0.6 1.2 3.2 5.4 3.4 6.6c0.8 1.4 1.6 2.8 2.2 4.4c1 1.2 1.4 2.8 2 4.4c0.8 1.2 1 3.2 2.2 4c0.4 1.8 0.8 3.6 2.2 4.2c1.6-1 2-3 2.6-5c1.4-2 2.6-4.4 3.4-7c1-1 3.6-5.8 3.4-7.8c1.6-3.6 2.8-7.2 4.8-10.2c1.4-5.6 4.6-9.2 5.4-15.4c1-0.6 1-2.2 2.2-2.8c0.4-1.2 0.2-3 1.6-3.6c3.4-0.2 3.4 3.4 4.4 5.8c0.4 1 1.2 1.8 1.8 2.8c0.2 2.2 1.2 3.8 2.2 5c0.4 3.8 2.6 5.6 3.2 9.2c2.8 3.8 4.8 8.6 6.4 13.6c2 3.2 3.2 7.6 5.6 10.6c0.4 2 0.4 4 1.6 5.2c1.8-1 2.2-3.4 2.8-5.4c2.2-2.4 3-6.4 5-8.8c1.2-3.8 2.8-7 4.4-10.2c0.6-1.8 2.4-5.4 2.6-5.6c0-0.4 1.6-3.6 1.8-4.4z" /></svg>